<svg xmlns="http://www.w3.org/2000/svg" version="1.1" xmlns:xlink="http://www.w3.org/1999/xlink" xmlns:svgjs="http://svgjs.dev/svgjs" width="1000" height="999" viewBox="0 0 1000 999"><g transform="matrix(1,0,0,1,-0.215743440233382,-0.21552769679306039)"><svg viewBox="0 0 343 343" data-background-color="#ffffff" preserveAspectRatio="xMidYMid meet" height="999" width="1000" xmlns="http://www.w3.org/2000/svg" xmlns:xlink="http://www.w3.org/1999/xlink"><g id="tight-bounds" transform="matrix(1,0,0,1,0.0740000000000407,0.07400000000001228)"><svg viewBox="0 0 342.85155851775386 342.85155851775386" height="342.85155851775386" width="342.85155851775386"><g><svg></svg></g><g><svg viewBox="0 0 342.85155851775386 342.85155851775386" height="342.85155851775386" width="342.85155851775386"><g><path d="M0 171.426c0-94.676 76.75-171.426 171.426-171.426 94.676 0 171.426 76.75 171.426 171.426 0 94.676-76.75 171.426-171.426 171.426-94.676 0-171.426-76.75-171.426-171.426zM171.426 339.747c92.961 0 168.322-75.36 168.321-168.321 0-92.961-75.36-168.322-168.321-168.322-92.961 0-168.322 75.36-168.322 168.322 0 92.961 75.36 168.322 168.322 168.321z" data-fill-palette-color="tertiary" fill="#ffffff" stroke="transparent"></path><ellipse rx="164.56874808852186" ry="164.56874808852186" cx="171.42577925887693" cy="171.42577925887693" fill="#ffffff" stroke="transparent" stroke-width="0" fill-opacity="1" data-fill-palette-color="tertiary"></ellipse></g><g transform="matrix(1,0,0,1,64.84655864529837,91.35368344641147)"><svg viewBox="0 0 213.1584412271571 160.14419162493093" height="160.14419162493093" width="213.1584412271571"><g><svg viewBox="0 0 213.1584412271571 160.14419162493093" height="160.14419162493093" width="213.1584412271571"><g><svg viewBox="0 0 213.1584412271571 160.14419162493093" height="160.14419162493093" width="213.1584412271571"><g transform="matrix(1,0,0,1,0,96.32464138694847)"><svg viewBox="0 0 213.1584412271571 63.81955023798246" height="63.81955023798246" width="213.1584412271571"><g id="textblocktransform"><svg viewBox="0 0 213.1584412271571 63.81955023798246" height="63.81955023798246" width="213.1584412271571" id="textblock"><g><svg viewBox="0 0 213.1584412271571 34.42121587140034" height="34.42121587140034" width="213.1584412271571"><g transform="matrix(1,0,0,1,0,0)"><svg width="213.1584412271571" viewBox="3.5 -33.5 210.5399932861328 34" height="34.42121587140034" data-palette-color="#ffffff"><path d="M19.65 0.5L19.65 0.5Q15 0.5 11.35-1.63 7.7-3.75 5.6-7.38 3.5-11 3.5-15.6L3.5-15.6Q3.5-19.4 4.83-22.65 6.15-25.9 8.5-28.35 10.85-30.8 13.93-32.15 17-33.5 20.5-33.5L20.5-33.5Q24-33.5 26.15-32.75 28.3-32 30.35-31.05L30.35-31.05 30.6-23.3 29.55-23.3 27.55-29.05Q25.6-30.5 23.88-31.23 22.15-31.95 20.1-31.95L20.1-31.95Q16-31.95 12.9-30 9.8-28.05 8.03-24.78 6.25-21.5 6.25-17.6L6.25-17.6Q6.25-12.65 8.1-8.95 9.95-5.25 13.15-3.18 16.35-1.1 20.35-1.1L20.35-1.1Q22.65-1.1 24.3-1.65 25.95-2.2 27.4-3.1L27.4-3.1 30.1-9.4 31.1-9.4 30.65-1.95Q29.2-1.2 27.7-0.65 26.2-0.1 24.28 0.2 22.35 0.5 19.65 0.5ZM62.75 0L38.95 0 38.95-1.25 42.85-2.1 42.85-30.9 38.95-31.75 38.95-33 50.35-33 50.35-31.75 45.85-30.9 45.85-1.75 59.4-1.75 61.75-10.6 62.75-10.6 62.75 0ZM80.55 0L69.75 0 69.75-1.25 73.65-2.1 73.65-30.9 69.75-31.75 69.75-33 80.55-33 80.55-31.75 76.65-30.9 76.65-2.1 80.55-1.25 80.55 0ZM98.84 0L87.29 0 87.29-1.25 91.29-2.1 91.29-30.9 87.39-31.75 87.39-33 109.79-33 109.79-24.9 108.79-24.9 106.69-31.25 94.29-31.25 94.29-17.9 103.39-17.9 104.64-22.05 105.64-22.05 105.64-12.1 104.64-12.1 103.39-16.15 94.29-16.15 94.29-2.1 98.84-1.25 98.84 0ZM132.44 0.5L132.44 0.5Q127.94 0.5 124.42-1.7 120.89-3.9 118.84-7.75 116.79-11.6 116.79-16.5L116.79-16.5Q116.79-21.4 118.84-25.25 120.89-29.1 124.42-31.3 127.94-33.5 132.44-33.5L132.44-33.5Q136.99-33.5 140.52-31.3 144.04-29.1 146.09-25.25 148.14-21.4 148.14-16.5L148.14-16.5Q148.14-11.6 146.09-7.75 144.04-3.9 140.52-1.7 136.99 0.5 132.44 0.5ZM133.49-1L133.49-1Q136.89-1 139.52-2.73 142.14-4.45 143.59-7.58 145.04-10.7 145.04-14.95L145.04-14.95Q145.04-20.1 143.24-23.95 141.44-27.8 138.39-29.93 135.34-32.05 131.59-32.05L131.59-32.05Q128.19-32.05 125.54-30.35 122.89-28.65 121.39-25.53 119.89-22.4 119.89-18.15L119.89-18.15Q119.89-13 121.72-9.13 123.54-5.25 126.62-3.13 129.69-1 133.49-1ZM165.64 0L154.89 0 154.89-1.25 158.89-2.1 158.89-30.9 154.89-31.75 154.89-33 164.79-33Q170.04-33 173.06-30.83 176.09-28.65 176.09-24.85L176.09-24.85Q176.09-21.85 174.16-19.75 172.24-17.65 169.09-16.65L169.09-16.65 178.74-1.9 182.04-1.25 182.04 0 176.24 0 166.24-15.65 161.89-15.65 161.89-2.15 165.64-1.25 165.64 0ZM165.14-31.25L165.14-31.25 161.89-31.25 161.89-17.4 165.44-17.4Q168.59-17.4 170.66-19.33 172.74-21.25 172.74-24.2L172.74-24.2Q172.74-27.45 170.69-29.35 168.64-31.25 165.14-31.25ZM196.34 0L185.04 0 185.04-1.25 189.04-2.1 189.04-30.9 185.04-31.75 185.04-33 196.69-33Q202.19-33 206.09-31.05 209.99-29.1 212.01-25.7 214.04-22.3 214.04-18L214.04-18Q214.04-12.45 211.86-8.43 209.69-4.4 205.74-2.2 201.79 0 196.34 0L196.34 0ZM197.04-31.25L197.04-31.25 192.04-31.25 192.04-1.75 197.29-1.75Q201.39-1.75 204.41-3.63 207.44-5.5 209.11-8.8 210.79-12.1 210.79-16.45L210.79-16.45Q210.79-20.9 209.19-24.25 207.59-27.6 204.51-29.43 201.44-31.25 197.04-31.25Z" opacity="1" transform="matrix(1,0,0,1,0,0)" fill="#000000" class="wordmark-text-0" data-fill-palette-color="quaternary" id="text-0"></path></svg></g></svg></g><g transform="matrix(1,0,0,1,0,42.54723882945705)"><svg viewBox="0 0 213.1584412271571 21.27231140852541" height="21.27231140852541" width="213.1584412271571"><g transform="matrix(1,0,0,1,0,0)"><svg width="213.1584412271571" viewBox="2.5399999618530273 -37.959999084472656 393.1399841308594 39.22999954223633" height="21.27231140852541" data-palette-color="#ffffff"><path d="M20.9-8.33L21.41-13.89Q21.48-14.67 21.57-15.53 21.66-16.38 21.78-17.31L21.78-17.31Q21.22-18.77 20.19-19.69 19.17-20.61 17.63-20.61L17.63-20.61Q16.11-20.61 15.06-19.74 14.01-18.87 13.38-17.6 12.74-16.33 12.46-14.93 12.18-13.53 12.18-12.45L12.18-12.45Q12.18-11.13 12.34-9.84 12.5-8.54 12.85-7.5 13.21-6.45 13.79-5.8 14.38-5.15 15.26-5.15L15.26-5.15Q17.41-5.22 18.75-6.13 20.09-7.03 20.9-8.33L20.9-8.33ZM33.08-36.84L29.93-2.47Q29.93-2.42 29.92-2.36 29.91-2.29 29.91-2.25L29.91-2.25Q29.91-2.12 29.92-2.05 29.93-1.98 29.93-1.9L29.93-1.9Q29.93-1.68 29.77-1.55 29.61-1.42 28.96-1.25L28.96-1.25 22.41 0.88Q22.14 0.98 21.7 1.12 21.26 1.27 20.85 1.27L20.85 1.27Q20.51 1.27 20.25 1.1 20 0.93 20 0.46L20 0.46Q20 0.02 20.01-0.24 20.02-0.51 20.03-0.74 20.04-0.98 20.08-1.25 20.12-1.51 20.17-1.95L20.17-1.95Q18.33-0.49 16.39 0.39 14.45 1.27 12.3 1.27L12.3 1.27Q9.96 1.27 8.14 0.16 6.32-0.95 5.08-2.82 3.83-4.69 3.19-7.09 2.54-9.5 2.54-12.11L2.54-12.11Q2.54-15.5 3.65-18.3 4.76-21.09 6.67-23.08 8.57-25.07 11.11-26.16 13.65-27.25 16.5-27.25L16.5-27.25Q18.04-27.25 19.45-26.44 20.85-25.63 22.09-24.37L22.09-24.37Q22.17-25.56 22.27-26.97 22.36-28.37 22.46-29.82 22.56-31.27 22.66-32.69 22.75-34.11 22.83-35.28L22.83-35.28Q22.83-35.5 22.99-35.63 23.14-35.77 23.8-35.94L23.8-35.94 30.66-37.57Q30.93-37.62 31.37-37.79 31.81-37.96 32.23-37.96L32.23-37.96Q32.54-37.96 32.82-37.82 33.11-37.67 33.11-37.26L33.11-37.26Q33.11-37.21 33.09-37.05 33.08-36.89 33.08-36.84L33.08-36.84ZM203.06-27.25L203.06-27.25Q205.38-27.25 207.27-26.38 209.17-25.51 210.52-24.13 211.88-22.75 212.61-21.04 213.34-19.34 213.34-17.63L213.34-17.63Q213.34-16.11 212.41-14.59 211.49-13.06 209.81-11.84 208.14-10.62 205.8-9.86 203.45-9.11 200.65-9.11L200.65-9.11Q199.18-9.11 197.57-9.4L197.57-9.4Q197.67-8.35 198.18-7.59 198.69-6.84 199.47-6.35 200.25-5.86 201.24-5.63 202.23-5.4 203.28-5.4L203.28-5.4Q204.45-5.4 205.54-5.6 206.63-5.81 207.63-6.15 208.63-6.49 209.56-6.91 210.48-7.32 211.31-7.74L211.31-7.74Q211.53-7.79 211.69-7.82 211.85-7.86 212-7.86L212-7.86Q212-7.86 211.99-7.47 211.97-7.08 211.97-6.37 211.97-5.66 211.96-4.66 211.95-3.66 211.92-2.44L211.92-2.44Q212-2.32 212.02-2.2 212.05-2.08 212.05-2L212.05-2Q212.05-1.71 211.51-1.37 210.97-1.03 210.11-0.66 209.24-0.29 208.13 0.05 207.02 0.39 205.87 0.67 204.72 0.95 203.65 1.11 202.57 1.27 201.77 1.27L201.77 1.27Q199.13 1.27 196.65 0.35 194.18-0.56 192.26-2.27 190.34-3.98 189.2-6.42 188.05-8.86 188.05-11.91L188.05-11.91Q188.05-15.11 189.15-17.91 190.25-20.7 192.23-22.78 194.22-24.85 196.98-26.05 199.74-27.25 203.06-27.25ZM202.77-20.75L202.77-20.75Q201.77-20.75 200.93-20.32 200.08-19.9 199.39-19.1 198.69-18.31 198.18-17.2 197.67-16.09 197.35-14.75L197.35-14.75Q199.86-15.19 201.52-15.67 203.18-16.16 204.19-16.66 205.19-17.16 205.6-17.66 206.02-18.16 206.02-18.63L206.02-18.63Q206.02-19.07 205.69-19.46 205.36-19.85 204.87-20.14 204.38-20.43 203.81-20.59 203.23-20.75 202.77-20.75ZM387.06-27L387.06-27Q387.16-27.25 387.42-27.25L387.42-27.25Q387.47-27.25 387.52-27.23 387.57-27.22 387.62-27.22L387.62-27.22Q389.45-26.51 391.38-26.06 393.31-25.61 395.21-25.2L395.21-25.2Q395.68-25.1 395.68-24.66L395.68-24.66Q395.68-24.34 395.38-23.68L395.38-23.68 385.32-2.29Q385.13-1.86 384.98-1.59 384.84-1.32 384.69-1.15 384.54-0.98 384.37-0.9 384.2-0.83 383.96-0.78L383.96-0.78Q382.1-0.42 380.2 0.06 378.29 0.54 376.24 1.25L376.24 1.25Q376.19 1.25 376.17 1.26 376.14 1.27 376.12 1.27L376.12 1.27 375.95 1.27Q375.83 1.27 375.75 1.18 375.68 1.1 375.66 1.03L375.66 1.03Q375.29-0.02 374.81-1.68 374.34-3.34 373.78-5.4 373.22-7.45 372.6-9.77 371.99-12.08 371.36-14.48 370.72-16.87 370.1-19.23 369.48-21.58 368.89-23.68L368.89-23.68Q368.67-24.44 368.67-24.76L368.67-24.76Q368.67-25.1 369.06-25.2L369.06-25.2Q370.97-25.61 373.02-26.06 375.07-26.51 376.9-27.22L376.9-27.22Q376.97-27.25 377.12-27.25L377.12-27.25Q377.44-27.25 377.46-27L377.46-27 380.69-10.6Q380.81-10.89 381.1-11.66 381.39-12.43 381.81-13.5 382.22-14.58 382.72-15.87 383.22-17.16 383.75-18.51 384.27-19.85 384.79-21.18 385.3-22.51 385.75-23.66 386.2-24.8 386.55-25.68 386.89-26.56 387.06-27Z" opacity="1" transform="matrix(1,0,0,1,0,0)" fill="#000000" class="slogan-text-1" data-fill-palette-color="quaternary" id="text-1"></path></svg></g></svg></g></svg></g></svg></g><g transform="matrix(1,0,0,1,62.71755425743413,0)"><svg viewBox="0 0 87.72333271228885 88.19861842889176" height="88.19861842889176" width="87.72333271228885"><g><svg xmlns="http://www.w3.org/2000/svg" xmlns:xlink="http://www.w3.org/1999/xlink" version="1.1" x="0" y="0" viewBox="5.241999626159668 5 89.51499938964844 89.99999237060547" enable-background="new 0 0 100 100" xml:space="preserve" height="88.19861842889176" width="87.72333271228885" class="icon-icon-0" data-fill-palette-color="quaternary" id="icon-0"><path fill="#000000" d="M85.434 5H14.566c-5.149 0-9.324 4.175-9.324 9.324v71.352c0 5.148 4.175 9.324 9.324 9.324h70.867c5.149 0 9.324-4.176 9.324-9.324V14.324C94.758 9.175 90.583 5 85.434 5zM41.501 38.479l-0.16 0.16-0.184 0.132c-1.031 0.742-2.207 1.605-3.595 2.642-1.519 1.132-2.852 2.13-4.077 3.049-1.417 1.062-2.783 2.081-4.062 3.03-1.293 0.96-2.515 1.854-3.632 2.659l-0.219 0.157-0.244 0.113c-0.926 0.426-1.86 0.643-2.78 0.643-1.448 0-2.739-0.501-3.731-1.449-1.028-0.979-1.573-2.269-1.573-3.727 0-1.292 0.421-2.52 1.25-3.649l0.245-0.333 0.331-0.249c0.857-0.644 1.871-1.396 3.01-2.233 1.155-0.851 2.302-1.707 3.406-2.546 1.205-0.914 2.374-1.788 3.474-2.598 0.016-0.012 0.031-0.022 0.046-0.034-1.079-0.83-2.211-1.711-3.364-2.618-1.185-0.93-2.346-1.833-3.449-2.683-1.134-0.872-2.09-1.627-2.837-2.244l-0.215-0.177-0.176-0.216c-0.971-1.193-1.463-2.501-1.463-3.887 0-1.432 0.527-2.716 1.526-3.715 0.999-0.998 2.306-1.526 3.778-1.526 0.736 0 1.527 0.166 2.417 0.508l0.229 0.087 0.21 0.127c0.298 0.179 0.717 0.479 1.789 1.367 0.719 0.596 1.605 1.295 2.641 2.081 1.077 0.819 2.23 1.721 3.43 2.679 1.164 0.932 2.281 1.804 3.321 2.593 1.092 0.832 2.029 1.56 2.786 2.164 0.748 0.6 1.229 0.983 1.441 1.153 1.882 1.487 2.278 3.235 2.278 4.439C43.349 35.406 43.028 36.951 41.501 38.479zM77.405 61.27c-0.808 0.888-1.924 1.512-3.32 1.862l-0.335 0.085H50.133l-0.127-0.012c-2.116-0.194-3.331-1.15-3.977-1.918-0.871-1.039-1.331-2.25-1.331-3.504 0-1.364 0.524-2.634 1.517-3.671 0.974-1.018 2.318-1.607 3.998-1.752l0.119-0.011h23.626l0.351 0.093c1.436 0.376 2.554 1.09 3.326 2.119 0.756 1.007 1.139 2.091 1.139 3.222C78.773 59.077 78.3 60.282 77.405 61.27z" data-fill-palette-color="quaternary"></path></svg></g></svg></g><g></g></svg></g></svg></g></svg></g></svg></g><defs></defs></svg><rect width="342.85155851775386" height="342.85155851775386" fill="none" stroke="none" visibility="hidden"></rect></g></svg></g></svg>